<svg id="icon-inst" viewBox="0 0 18 18">
                <path d="M9.33366 2.23301C11.6308 2.23301 11.9441 2.23301 12.8839 2.23301C13.7192 2.23301 14.1369 2.44185 14.4501 2.54627C14.8678 2.7551 15.181 2.85952 15.4943 3.17277C15.8076 3.48603 16.0164 3.79928 16.1208 4.21695C16.2252 4.5302 16.3296 4.94787 16.4341 5.78322C16.4341 6.72297 16.4341 6.93181 16.4341 9.33342C16.4341 11.735 16.4341 11.9439 16.4341 12.8836C16.4341 13.719 16.2252 14.1366 16.1208 14.4499C15.912 14.8676 15.8076 15.1808 15.4943 15.4941C15.181 15.8073 14.8678 16.0161 14.4501 16.1206C14.1369 16.225 13.7192 16.3294 12.8839 16.4338C11.9441 16.4338 11.7353 16.4338 9.33366 16.4338C6.93205 16.4338 6.72322 16.4338 5.78346 16.4338C4.94812 16.4338 4.53045 16.225 4.21719 16.1206C3.79952 15.9117 3.48627 15.8073 3.17302 15.4941C2.85976 15.1808 2.65093 14.8676 2.54651 14.4499C2.44209 14.1366 2.33768 13.719 2.23326 12.8836C2.23326 11.9439 2.23326 11.735 2.23326 9.33342C2.23326 6.93181 2.23326 6.72297 2.23326 5.78322C2.23326 4.94787 2.44209 4.5302 2.54651 4.21695C2.75535 3.79928 2.85976 3.48603 3.17302 3.17277C3.48627 2.85952 3.79952 2.65068 4.21719 2.54627C4.53045 2.44185 4.94812 2.33743 5.78346 2.23301C6.72322 2.23301 7.03647 2.23301 9.33366 2.23301ZM9.33366 0.666748C6.93205 0.666748 6.72322 0.666748 5.78346 0.666748C4.8437 0.666748 4.21719 0.875584 3.69511 1.08442C3.17302 1.29325 2.65093 1.60651 2.12884 2.1286C1.60675 2.65068 1.39792 3.06836 1.08466 3.69486C0.875828 4.21695 0.77141 4.84346 0.666992 5.78322C0.666992 6.72297 0.666992 7.03623 0.666992 9.33342C0.666992 11.735 0.666992 11.9439 0.666992 12.8836C0.666992 13.8234 0.875828 14.4499 1.08466 14.972C1.2935 15.4941 1.60675 16.0161 2.12884 16.5382C2.65093 17.0603 3.0686 17.2692 3.69511 17.5824C4.21719 17.7913 4.8437 17.8957 5.78346 18.0001C6.72322 18.0001 7.03647 18.0001 9.33366 18.0001C11.6308 18.0001 11.9441 18.0001 12.8839 18.0001C13.8236 18.0001 14.4501 17.7913 14.9722 17.5824C15.4943 17.3736 16.0164 17.0603 16.5385 16.5382C17.0606 16.0161 17.2694 15.5985 17.5827 14.972C17.7915 14.4499 17.8959 13.8234 18.0003 12.8836C18.0003 11.9439 18.0003 11.6306 18.0003 9.33342C18.0003 7.03623 18.0003 6.72297 18.0003 5.78322C18.0003 4.84346 17.7915 4.21695 17.5827 3.69486C17.3738 3.17277 17.0606 2.65068 16.5385 2.1286C16.0164 1.60651 15.5987 1.39767 14.9722 1.08442C14.4501 0.875584 13.8236 0.771166 12.8839 0.666748C11.9441 0.666748 11.7353 0.666748 9.33366 0.666748Z"></path>
                <path d="M9.33366 4.84346C6.82764 4.84346 4.8437 6.82739 4.8437 9.33342C4.8437 11.8394 6.82764 13.8234 9.33366 13.8234C11.8397 13.8234 13.8236 11.8394 13.8236 9.33342C13.8236 6.82739 11.8397 4.84346 9.33366 4.84346ZM9.33366 12.2571C7.76739 12.2571 6.40996 11.0041 6.40996 9.33342C6.40996 7.76715 7.66298 6.40972 9.33366 6.40972C10.8999 6.40972 12.2574 7.66273 12.2574 9.33342C12.2574 10.8997 10.8999 12.2571 9.33366 12.2571Z"></path>
                <path d="M13.928 5.78322C14.5047 5.78322 14.9722 5.31572 14.9722 4.73904C14.9722 4.16236 14.5047 3.69486 13.928 3.69486C13.3514 3.69486 12.8839 4.16236 12.8839 4.73904C12.8839 5.31572 13.3514 5.78322 13.928 5.78322Z"></path>
        </svg>